<svg xmlns="http://www.w3.org/2000/svg" xmlns:xlink="http://www.w3.org/1999/xlink" width="500" zoomAndPan="magnify" viewBox="0 0 375 374.999991" height="500" preserveAspectRatio="xMidYMid meet" version="1.0"><defs><g/><clipPath id="5afe23cd02"><path d="M 78.578125 149.015625 L 325.160156 149.015625 L 325.160156 222.984375 L 78.578125 222.984375 Z M 78.578125 149.015625 " clip-rule="nonzero"/></clipPath><clipPath id="8e10bd9231"><path d="M 78.585938 149.015625 L 325.140625 149.015625 L 325.140625 222.972656 L 78.585938 222.972656 Z M 78.585938 149.015625 " clip-rule="nonzero"/></clipPath></defs><rect x="-37.5" width="450" fill="#ffffff" y="-37.499999" height="449.999989" fill-opacity="1"/><rect x="-37.5" width="450" fill="#000000" y="-37.499999" height="449.999989" fill-opacity="1"/><g clip-path="url(#5afe23cd02)"><path fill="#000000" d="M 78.578125 149.015625 L 325.03125 149.015625 L 325.03125 222.984375 L 78.578125 222.984375 Z M 78.578125 149.015625 " fill-opacity="1" fill-rule="nonzero"/></g><g clip-path="url(#8e10bd9231)"><path stroke-linecap="butt" transform="matrix(0.75, 0, 0, 0.75, 78.587049, 149.017301)" fill="none" stroke-linejoin="miter" d="M -0.00148192 -0.00223415 L 328.738102 -0.00223415 L 328.738102 98.607141 L -0.00148192 98.607141 Z M -0.00148192 -0.00223415 " stroke="#ffffff" stroke-width="8" stroke-opacity="1" stroke-miterlimit="4"/></g><g fill="#ffffff" fill-opacity="1"><g transform="translate(80.653373, 199.499987)"><g><path d="M 19.53125 -34.1875 C 23.09375 -34.1875 26.429688 -33.273438 29.546875 -31.453125 L 25.046875 -24.734375 C 23.484375 -26.203125 21.6875 -26.9375 19.65625 -26.9375 C 18.59375 -26.9375 17.625 -26.632812 16.75 -26.03125 C 15.882812 -25.4375 15.453125 -24.695312 15.453125 -23.8125 C 15.453125 -23.164062 15.757812 -22.597656 16.375 -22.109375 C 17 -21.617188 18.132812 -21.140625 19.78125 -20.671875 C 22.019531 -19.992188 23.640625 -19.335938 24.640625 -18.703125 C 25.648438 -18.066406 26.429688 -17.285156 26.984375 -16.359375 C 27.546875 -15.429688 27.828125 -14.273438 27.828125 -12.890625 C 27.828125 -10.890625 27.3125 -8.769531 26.28125 -6.53125 C 25.25 -4.300781 23.5625 -2.519531 21.21875 -1.1875 C 18.882812 0.132812 16.109375 0.828125 12.890625 0.890625 C 8.773438 0.890625 5.066406 -0.378906 1.765625 -2.921875 L 6.578125 -9.890625 C 8.878906 -7.597656 11.25 -6.453125 13.6875 -6.453125 C 15.039062 -6.453125 16.179688 -6.800781 17.109375 -7.5 C 18.046875 -8.207031 18.515625 -9.109375 18.515625 -10.203125 C 18.515625 -11.617188 17.097656 -12.707031 14.265625 -13.46875 C 10.847656 -14.414062 8.640625 -15.425781 7.640625 -16.5 C 6.640625 -17.570312 6.140625 -19.007812 6.140625 -20.8125 C 6.140625 -24.570312 7.425781 -27.738281 10 -30.3125 C 12.582031 -32.894531 15.757812 -34.1875 19.53125 -34.1875 Z M 19.53125 -34.1875 "/></g></g></g><g fill="#ffffff" fill-opacity="1"><g transform="translate(103.133636, 199.499987)"><g><path d="M 16.5625 -33.3125 L 13.828125 -15.71875 C 13.554688 -14.132812 13.421875 -12.84375 13.421875 -11.84375 C 13.421875 -10.15625 13.78125 -8.878906 14.5 -8.015625 C 15.226562 -7.148438 16.476562 -6.71875 18.25 -6.71875 C 20.394531 -6.71875 22.035156 -7.414062 23.171875 -8.8125 C 24.304688 -10.207031 25.09375 -12.410156 25.53125 -15.421875 L 28.3125 -33.3125 L 36.96875 -33.3125 L 33.96875 -14.140625 C 33.375 -10.242188 32.351562 -7.28125 30.90625 -5.25 C 29.46875 -3.21875 27.550781 -1.6875 25.15625 -0.65625 C 22.757812 0.375 20.054688 0.890625 17.046875 0.890625 C 12.984375 0.890625 9.863281 0.015625 7.6875 -1.734375 C 5.507812 -3.492188 4.421875 -6.050781 4.421875 -9.40625 C 4.421875 -10.03125 4.445312 -10.707031 4.5 -11.4375 C 4.5625 -12.175781 5.695312 -19.46875 7.90625 -33.3125 Z M 16.5625 -33.3125 "/></g></g></g><g fill="#ffffff" fill-opacity="1"><g transform="translate(132.813274, 199.499987)"><g><path d="M 27.34375 -33.3125 L 34.625 0 L 25.40625 0 L 24.15625 -5.78125 L 12.234375 -5.78125 L 9.015625 0 L -0.171875 0 L 17.890625 -33.3125 Z M 15.6875 -12.40625 L 22.875 -12.40625 L 21.03125 -23.015625 L 20.9375 -23.015625 Z M 15.6875 -12.40625 "/></g></g></g><g fill="#ffffff" fill-opacity="1"><g transform="translate(162.625411, 199.499987)"><g><path d="M 19.53125 -34.1875 C 23.09375 -34.1875 26.429688 -33.273438 29.546875 -31.453125 L 25.046875 -24.734375 C 23.484375 -26.203125 21.6875 -26.9375 19.65625 -26.9375 C 18.59375 -26.9375 17.625 -26.632812 16.75 -26.03125 C 15.882812 -25.4375 15.453125 -24.695312 15.453125 -23.8125 C 15.453125 -23.164062 15.757812 -22.597656 16.375 -22.109375 C 17 -21.617188 18.132812 -21.140625 19.78125 -20.671875 C 22.019531 -19.992188 23.640625 -19.335938 24.640625 -18.703125 C 25.648438 -18.066406 26.429688 -17.285156 26.984375 -16.359375 C 27.546875 -15.429688 27.828125 -14.273438 27.828125 -12.890625 C 27.828125 -10.890625 27.3125 -8.769531 26.28125 -6.53125 C 25.25 -4.300781 23.5625 -2.519531 21.21875 -1.1875 C 18.882812 0.132812 16.109375 0.828125 12.890625 0.890625 C 8.773438 0.890625 5.066406 -0.378906 1.765625 -2.921875 L 6.578125 -9.890625 C 8.878906 -7.597656 11.25 -6.453125 13.6875 -6.453125 C 15.039062 -6.453125 16.179688 -6.800781 17.109375 -7.5 C 18.046875 -8.207031 18.515625 -9.109375 18.515625 -10.203125 C 18.515625 -11.617188 17.097656 -12.707031 14.265625 -13.46875 C 10.847656 -14.414062 8.640625 -15.425781 7.640625 -16.5 C 6.640625 -17.570312 6.140625 -19.007812 6.140625 -20.8125 C 6.140625 -24.570312 7.425781 -27.738281 10 -30.3125 C 12.582031 -32.894531 15.757812 -34.1875 19.53125 -34.1875 Z M 19.53125 -34.1875 "/></g></g></g><g fill="#ffffff" fill-opacity="1"><g transform="translate(185.105674, 199.499987)"><g><path d="M 27.34375 -33.3125 L 34.625 0 L 25.40625 0 L 24.15625 -5.78125 L 12.234375 -5.78125 L 9.015625 0 L -0.171875 0 L 17.890625 -33.3125 Z M 15.6875 -12.40625 L 22.875 -12.40625 L 21.03125 -23.015625 L 20.9375 -23.015625 Z M 15.6875 -12.40625 "/></g></g></g><g fill="#ffffff" fill-opacity="1"><g transform="translate(214.917806, 199.499987)"><g><path d="M 16.734375 -33.3125 L 29.375 -12.9375 L 29.46875 -12.9375 L 32.6875 -33.3125 L 41.34375 -33.3125 L 36.09375 0 L 27.4375 0 L 14.796875 -20.40625 L 14.703125 -20.40625 L 11.484375 0 L 2.828125 0 L 8.078125 -33.3125 Z M 16.734375 -33.3125 "/></g></g></g><g fill="#ffffff" fill-opacity="1"><g transform="translate(249.146739, 199.499987)"><g><path d="M 27.34375 -33.3125 L 34.625 0 L 25.40625 0 L 24.15625 -5.78125 L 12.234375 -5.78125 L 9.015625 0 L -0.171875 0 L 17.890625 -33.3125 Z M 15.6875 -12.40625 L 22.875 -12.40625 L 21.03125 -23.015625 L 20.9375 -23.015625 Z M 15.6875 -12.40625 "/></g></g></g><g fill="#ffffff" fill-opacity="1"><g transform="translate(278.958871, 199.499987)"><g><path d="M 17.9375 -33.3125 L 21.6875 -24.6875 L 28.09375 -33.3125 L 38.734375 -33.3125 L 25.65625 -17.796875 L 35.15625 0 L 24.734375 0 L 19.484375 -10.859375 L 10.109375 0 L -0.359375 0 L 15.5 -17.796875 L 7.28125 -33.3125 Z M 17.9375 -33.3125 "/></g></g></g></svg>