<svg xmlns="http://www.w3.org/2000/svg" xmlns:xlink="http://www.w3.org/1999/xlink" width="500" zoomAndPan="magnify" viewBox="0 0 375 374.999991" height="500" preserveAspectRatio="xMidYMid meet" version="1.0"><defs><g/><clipPath id="47e87d7431"><path d="M 78.578125 149.015625 L 325.160156 149.015625 L 325.160156 222.984375 L 78.578125 222.984375 Z M 78.578125 149.015625 " clip-rule="nonzero"/></clipPath><clipPath id="c73c6dfb6f"><path d="M 78.585938 149.015625 L 325.140625 149.015625 L 325.140625 222.972656 L 78.585938 222.972656 Z M 78.585938 149.015625 " clip-rule="nonzero"/></clipPath></defs><rect x="-37.5" width="450" fill="#ffffff" y="-37.499999" height="449.999989" fill-opacity="1"/><rect x="-37.5" width="450" fill="#000000" y="-37.499999" height="449.999989" fill-opacity="1"/><g clip-path="url(#47e87d7431)"><path fill="#000000" d="M 78.578125 149.015625 L 325.03125 149.015625 L 325.03125 222.984375 L 78.578125 222.984375 Z M 78.578125 149.015625 " fill-opacity="1" fill-rule="nonzero"/></g><g clip-path="url(#c73c6dfb6f)"><path stroke-linecap="butt" transform="matrix(0.75, 0, 0, 0.75, 78.587049, 149.017301)" fill="none" stroke-linejoin="miter" d="M -0.00148192 -0.00223415 L 328.738102 -0.00223415 L 328.738102 98.607141 L -0.00148192 98.607141 Z M -0.00148192 -0.00223415 " stroke="#ffffff" stroke-width="8" stroke-opacity="1" stroke-miterlimit="4"/></g><g fill="#ffffff" fill-opacity="1"><g transform="translate(86.196282, 200.453793)"><g><path d="M 29.8125 -36.328125 L 37.765625 0 L 27.703125 0 L 26.34375 -6.3125 L 13.34375 -6.3125 L 9.828125 0 L -0.1875 0 L 19.515625 -36.328125 Z M 17.09375 -13.53125 L 24.953125 -13.53125 L 22.9375 -25.09375 L 22.828125 -25.09375 Z M 17.09375 -13.53125 "/></g></g></g><g fill="#ffffff" fill-opacity="1"><g transform="translate(118.713632, 200.453793)"><g><path d="M 31.078125 -36.328125 L 29.8125 -28.328125 L 22.015625 -28.328125 L 17.53125 0 L 8.09375 0 L 12.578125 -28.328125 L 4.765625 -28.328125 L 6.015625 -36.328125 Z M 31.078125 -36.328125 "/></g></g></g><g fill="#ffffff" fill-opacity="1"><g transform="translate(139.283679, 200.453793)"><g><path d="M 18.0625 -36.328125 L 15.078125 -17.15625 C 14.785156 -15.414062 14.640625 -14 14.640625 -12.90625 C 14.640625 -11.082031 15.03125 -9.695312 15.8125 -8.75 C 16.601562 -7.800781 17.960938 -7.328125 19.890625 -7.328125 C 22.234375 -7.328125 24.023438 -8.085938 25.265625 -9.609375 C 26.503906 -11.128906 27.363281 -13.53125 27.84375 -16.8125 L 30.875 -36.328125 L 40.3125 -36.328125 L 37.046875 -15.421875 C 36.398438 -11.179688 35.289062 -7.953125 33.71875 -5.734375 C 32.144531 -3.515625 30.050781 -1.84375 27.4375 -0.71875 C 24.820312 0.40625 21.875 0.96875 18.59375 0.96875 C 14.164062 0.96875 10.757812 0.015625 8.375 -1.890625 C 6 -3.804688 4.8125 -6.597656 4.8125 -10.265625 C 4.8125 -10.929688 4.84375 -11.664062 4.90625 -12.46875 C 4.976562 -13.28125 6.21875 -21.234375 8.625 -36.328125 Z M 18.0625 -36.328125 "/></g></g></g><g fill="#ffffff" fill-opacity="1"><g transform="translate(171.656502, 200.453793)"><g><path d="M 23.171875 -36.328125 C 26.441406 -36.328125 29.066406 -35.554688 31.046875 -34.015625 C 33.023438 -32.472656 34.015625 -30.253906 34.015625 -27.359375 C 34.015625 -24.273438 33.097656 -21.550781 31.265625 -19.1875 C 29.429688 -16.832031 27.085938 -15.398438 24.234375 -14.890625 L 33.28125 0 L 21.53125 0 L 14.84375 -13.96875 L 14.734375 -13.96875 L 12.53125 0 L 3.078125 0 L 8.8125 -36.328125 Z M 15.703125 -20.046875 L 17 -20.046875 C 19.21875 -20.046875 20.9375 -20.507812 22.15625 -21.4375 C 23.375 -22.363281 23.984375 -23.726562 23.984375 -25.53125 C 23.984375 -27.90625 22.023438 -29.09375 18.109375 -29.09375 L 17.15625 -29.09375 Z M 15.703125 -20.046875 "/></g></g></g><path stroke-linecap="butt" transform="matrix(0.903363, 0, 0, 0.903363, 200.814294, 152.575538)" fill="none" stroke-linejoin="miter" d="M 20.208944 12.793606 L 17.601501 29.367953 L 17.70528 29.367953 L 32.952122 12.793606 L 45.920153 12.793606 L 26.924301 31.828376 L 41.012279 52.999261 L 27.460491 52.999261 L 16.745326 35.564415 L 16.641547 35.564415 L 13.865463 52.999261 L 3.409744 52.999261 L 9.766198 12.793606 Z M 67.774248 12.793606 L 76.578154 52.999261 L 65.430576 52.999261 L 63.947404 46.007161 L 49.548089 46.007161 L 45.652058 52.999261 L 34.560694 52.999261 L 56.371548 12.793606 Z M 53.699243 38.011866 L 62.399369 38.011866 L 60.159476 25.216799 L 60.055697 25.216799 Z M 90.973144 12.793606 L 106.232959 37.37622 L 106.336738 37.37622 L 110.228444 12.793606 L 120.684163 12.793606 L 114.332033 52.999261 L 103.889287 52.999261 L 88.629472 28.364757 L 88.525693 28.364757 L 84.629663 52.999261 L 74.178268 52.999261 L 80.530398 12.793606 Z M 90.973144 12.793606 " stroke="#000000" stroke-width="5.399997" stroke-opacity="1" stroke-miterlimit="4"/><g fill="#ffffff" fill-opacity="1"><g transform="translate(200.814294, 200.453793)"><g><path d="M 18.25 -36.328125 L 15.890625 -21.34375 L 16 -21.34375 L 29.765625 -36.328125 L 41.46875 -36.328125 L 24.328125 -19.125 L 37.046875 0 L 24.8125 0 L 15.125 -15.75 L 15.03125 -15.75 L 12.53125 0 L 3.078125 0 L 8.8125 -36.328125 Z M 18.25 -36.328125 "/></g></g></g><g fill="#ffffff" fill-opacity="1"><g transform="translate(232.223626, 200.453793)"><g><path d="M 29.8125 -36.328125 L 37.765625 0 L 27.703125 0 L 26.34375 -6.3125 L 13.34375 -6.3125 L 9.828125 0 L -0.1875 0 L 19.515625 -36.328125 Z M 17.09375 -13.53125 L 24.953125 -13.53125 L 22.9375 -25.09375 L 22.828125 -25.09375 Z M 17.09375 -13.53125 "/></g></g></g><g fill="#ffffff" fill-opacity="1"><g transform="translate(264.740976, 200.453793)"><g><path d="M 18.25 -36.328125 L 32.03125 -14.109375 L 32.125 -14.109375 L 35.640625 -36.328125 L 45.09375 -36.328125 L 39.359375 0 L 29.921875 0 L 16.140625 -22.25 L 16.046875 -22.25 L 12.53125 0 L 3.078125 0 L 8.8125 -36.328125 Z M 18.25 -36.328125 "/></g></g></g></svg>